<svg width="50" height="50" viewBox="0 0 50 50" fill="none" xmlns="http://www.w3.org/2000/svg">
<g clip-path="url(#clip0_18_100)">
<rect width="50" height="50" rx="7.45" fill="white"/>
<rect y="38.5211" width="11.4789" height="11.4789" fill="white"/>
<rect x="39.5771" width="10.4225" height="10.4225" fill="white"/>
<path d="M9.09375 42.6161H12.5394C13.4008 42.6161 13.8315 42.1854 13.8315 41.324V12.8977C13.8315 12.451 13.7198 12.132 13.4965 11.9406C13.305 11.7173 12.986 11.6056 12.5394 11.6056H9.09375V10.0742H22.9719V11.6056H19.5263C19.0796 11.6056 18.7446 11.7173 18.5213 11.9406C18.3299 12.132 18.2342 12.451 18.2342 12.8977V35.4929L31.8252 13.3064V12.8977C31.8252 12.451 31.7135 12.132 31.4902 11.9406C31.2988 11.7173 30.9797 11.6056 30.5331 11.6056H27.0875V10.0742H40.9656V11.6056H37.52C36.6586 11.6056 36.2279 12.0363 36.2279 12.8977V41.324C36.2279 42.1854 36.6586 42.6161 37.52 42.6161H40.9656V44.1475H27.0875V42.6161H30.5331C31.3945 42.6161 31.8252 42.1854 31.8252 41.324V18.5915L18.2342 41.324C18.2342 42.1854 18.6649 42.6161 19.5263 42.6161H22.9719V44.1475H9.09375V42.6161Z" fill="black"/>
</g>
<defs>
<clipPath id="clip0_18_100">
<rect width="50" height="50" fill="white"/>
</clipPath>
</defs>
</svg>
