<svg width="24" height="24" viewBox="0 0 24 24" fill="none" xmlns="http://www.w3.org/2000/svg">
<g clip-path="url(#clip0_18_94)">
<rect width="24" height="24" rx="3.576" fill="white"/>
<rect y="18.4901" width="5.50986" height="5.50986" fill="white"/>
<rect x="18.9971" width="5.00282" height="5.00282" fill="white"/>
<path d="M4.36523 20.4557H6.01913C6.4326 20.4557 6.63934 20.249 6.63934 19.8355V6.1909C6.63934 5.97651 6.58574 5.82337 6.47854 5.73149C6.38666 5.62429 6.23352 5.5707 6.01913 5.5707H4.36523V4.83563H11.0267V5.5707H9.37285C9.15846 5.5707 8.99766 5.62429 8.89047 5.73149C8.79858 5.82337 8.75264 5.97651 8.75264 6.1909V17.0366L15.2763 6.38708V6.1909C15.2763 5.97651 15.2227 5.82337 15.1155 5.73149C15.0237 5.62429 14.8705 5.5707 14.6561 5.5707H13.0022V4.83563H19.6637V5.5707H18.0098C17.5964 5.5707 17.3896 5.77743 17.3896 6.1909V19.8355C17.3896 20.249 17.5964 20.4557 18.0098 20.4557H19.6637V21.1908H13.0022V20.4557H14.6561C15.0696 20.4557 15.2763 20.249 15.2763 19.8355V8.92392L8.75264 19.8355C8.75264 20.249 8.95938 20.4557 9.37285 20.4557H11.0267V21.1908H4.36523V20.4557Z" fill="black"/>
</g>
<defs>
<clipPath id="clip0_18_94">
<rect width="24" height="24" fill="white"/>
</clipPath>
</defs>
</svg>
